name ./resultDataOpenSim/trcMotMarkerGrf/sub06/grf-03-05.mot
datacolumns 19
datarows 27
range 1.03600000 1.14000000
endheader

                time	     ground_force_vx	     ground_force_vy	     ground_force_vz	     ground_force_px	     ground_force_py	     ground_force_pz	   l_ground_force_vx	   l_ground_force_vy	   l_ground_force_vz	   l_ground_force_px	   l_ground_force_py	   l_ground_force_pz	     ground_torque_x	     ground_torque_y	     ground_torque_z	   l_ground_torque_x	   l_ground_torque_y	   l_ground_torque_z	
          1.03600000	          0.00000000	          0.00000000	          0.00000000	          0.00000000	          0.00000000	          0.00000000	        142.13336418	        739.63970004	         37.35814881	          0.07498221	         -0.05000000	          0.01886374	          0.00000000	          0.00000000	          0.00000000	          0.00000000	         -3.95308814	          0.00000000	
          1.04000000	          0.00000000	          0.00000000	          0.00000000	          0.00000000	          0.00000000	          0.00000000	        150.37554457	        746.34343964	         37.03860479	          0.07566443	         -0.05000000	          0.01911994	          0.00000000	          0.00000000	          0.00000000	          0.00000000	         -3.99895160	          0.00000000	
          1.04400000	          0.00000000	          0.00000000	          0.00000000	          0.00000000	          0.00000000	          0.00000000	        158.36466723	        750.64876715	         36.38590975	          0.07630249	         -0.05000000	          0.01934939	          0.00000000	          0.00000000	          0.00000000	          0.00000000	         -4.04571927	          0.00000000	
          1.04800000	          0.00000000	          0.00000000	          0.00000000	          0.00000000	          0.00000000	          0.00000000	        166.00155537	        752.35751632	         35.43931821	          0.07696213	         -0.05000000	          0.01956978	          0.00000000	          0.00000000	          0.00000000	          0.00000000	         -4.08775779	          0.00000000	
          1.05200000	          0.00000000	          0.00000000	          0.00000000	          0.00000000	          0.00000000	          0.00000000	        173.23415289	        751.32243086	         34.25873764	          0.07768976	         -0.05000000	          0.01979735	          0.00000000	          0.00000000	          0.00000000	          0.00000000	         -4.11838609	          0.00000000	
          1.05600000	          0.00000000	          0.00000000	          0.00000000	          0.00000000	          0.00000000	          0.00000000	        180.03666568	        747.49525078	         32.90489652	          0.07847222	         -0.05000000	          0.02003221	          0.00000000	          0.00000000	          0.00000000	          0.00000000	         -4.13109561	          0.00000000	
          1.06000000	          0.00000000	          0.00000000	          0.00000000	          0.00000000	          0.00000000	          0.00000000	        186.37136503	        740.90846682	         31.41272144	          0.07925214	         -0.05000000	          0.02026145	          0.00000000	          0.00000000	          0.00000000	          0.00000000	         -4.12067133	          0.00000000	
          1.06400000	          0.00000000	          0.00000000	          0.00000000	          0.00000000	          0.00000000	          0.00000000	        192.16484150	        731.61327038	         29.78494757	          0.07998064	         -0.05000000	          0.02048148	          0.00000000	          0.00000000	          0.00000000	          0.00000000	         -4.08375763	          0.00000000	
          1.06800000	          0.00000000	          0.00000000	          0.00000000	          0.00000000	          0.00000000	          0.00000000	        197.30311275	        719.60804754	         28.00672528	          0.08065623	         -0.05000000	          0.02071042	          0.00000000	          0.00000000	          0.00000000	          0.00000000	         -4.01873227	          0.00000000	
          1.07200000	          0.00000000	          0.00000000	          0.00000000	          0.00000000	          0.00000000	          0.00000000	        201.64102310	        704.79372310	         26.05878841	          0.08131857	         -0.05000000	          0.02097258	          0.00000000	          0.00000000	          0.00000000	          0.00000000	         -3.92508578	          0.00000000	
          1.07600000	          0.00000000	          0.00000000	          0.00000000	          0.00000000	          0.00000000	          0.00000000	        205.01733477	        686.97640955	         23.91757124	          0.08200513	         -0.05000000	          0.02127657	          0.00000000	          0.00000000	          0.00000000	          0.00000000	         -3.80265430	          0.00000000	
          1.08000000	         -2.74025676	         21.34402200	          1.21927901	          0.73433133	          0.00000000	          0.15071289	        207.26002145	        665.86804875	         21.55501018	          0.08272879	         -0.05000000	          0.02160902	          0.00000000	          0.09024399	          0.00000000	          0.00000000	         -3.65103375	          0.00000000	
          1.08400000	        -14.70075257	        173.08235039	          7.07295939	          0.74015346	          0.00000000	          0.14813950	        208.17845875	        641.07037325	         18.95026161	          0.08349802	         -0.05000000	          0.02194863	          0.00000000	         -0.07689421	          0.00000000	          0.00000000	         -3.46942780	          0.00000000	
          1.08800000	        -27.24133104	        312.23948650	         12.78634994	          0.74519766	          0.00000000	          0.14612401	        207.55618058	        612.12484122	         16.11618862	          0.08431797	         -0.05000000	          0.02226924	          0.00000000	         -0.27288320	          0.00000000	          0.00000000	         -3.25705736	          0.00000000	
          1.09200000	        -41.14833599	        427.43706489	         17.81012295	          0.74993514	          0.00000000	          0.14506806	        205.16197717	        578.63527554	         13.13751954	          0.08516706	         -0.05000000	          0.02253448	          0.00000000	         -0.50567506	          0.00000000	          0.00000000	         -3.01403372	          0.00000000	
          1.09600000	        -57.07098915	        513.74289369	         20.99783425	          0.75398533	          0.00000000	          0.14573985	        200.76793977	        540.40203103	         10.17989744	          0.08603833	         -0.05000000	          0.02271771	          0.00000000	         -0.76443703	          0.00000000	          0.00000000	         -2.74237032	          0.00000000	
          1.10000000	        -75.12039537	        574.15270737	         21.14536106	          0.75749453	          0.00000000	          0.14781646	        194.12963598	        497.57841007	          7.42137378	          0.08696690	         -0.05000000	          0.02280845	          0.00000000	         -1.01717494	          0.00000000	          0.00000000	         -2.44674686	          0.00000000	
          1.10400000	        -95.18865439	        615.89976903	         17.93771908	          0.76155640	          0.00000000	          0.14990766	        184.93615740	        450.79881032	          4.95675629	          0.08804321	         -0.05000000	          0.02280812	          0.00000000	         -1.21487529	          0.00000000	          0.00000000	         -2.13470808	          0.00000000	
          1.10800000	       -117.22384798	        645.06528581	         12.11938065	          0.76705665	          0.00000000	          0.15128226	        172.84487007	        401.15425075	          2.78914764	          0.08936072	         -0.05000000	          0.02274063	          0.00000000	         -1.30283263	          0.00000000	          0.00000000	         -1.81606610	          0.00000000	
          1.11200000	       -140.56133285	        664.75092161	          4.83471533	          0.77352889	          0.00000000	          0.15242187	        157.68751089	        350.05333226	          0.91735253	          0.09098422	         -0.05000000	          0.02261042	          0.00000000	         -1.23880921	          0.00000000	          0.00000000	         -1.50156601	          0.00000000	
          1.11600000	       -163.58930441	        677.35064483	         -2.88186785	          0.77972918	          0.00000000	          0.15382225	        139.72927997	        299.12087351	         -0.59772380	          0.09295906	         -0.05000000	          0.02242120	          0.00000000	         -1.01319584	          0.00000000	          0.00000000	         -1.20142683	          0.00000000	
          1.12000000	       -184.94005586	        686.82511928	        -10.33043746	          0.78495522	          0.00000000	          0.15532561	        119.75889781	        250.12087680	         -1.66683821	          0.09531882	         -0.05000000	          0.02217401	          0.00000000	         -0.66091974	          0.00000000	          0.00000000	         -0.92452509	          0.00000000	
          1.12400000	       -204.67791816	        698.11939237	        -17.27888280	          0.78970997	          0.00000000	          0.15650282	         98.95448944	        204.74439117	         -2.25294964	          0.09805522	         -0.05000000	          0.02187308	          0.00000000	         -0.25618475	          0.00000000	          0.00000000	         -0.67829414	          0.00000000	
          1.12800000	       -223.64874507	        714.93409480	        -23.70549808	          0.79471859	          0.00000000	          0.15713154	         78.64592510	        164.26385230	         -2.41015693	          0.10100887	         -0.05000000	          0.02149703	          0.00000000	          0.10982145	          0.00000000	          0.00000000	         -0.46867831	          0.00000000	
          1.13200000	       -241.90887469	        738.32302075	        -29.35834042	          0.79986941	          0.00000000	          0.15731631	         60.06324391	        129.27332806	         -2.26666756	          0.10394058	         -0.05000000	          0.02104375	          0.00000000	          0.35857487	          0.00000000	          0.00000000	         -0.29966433	          0.00000000	
          1.13600000	       -258.42854923	        767.02643726	        -33.73642777	          0.80433390	          0.00000000	          0.15732600	         44.10717980	         99.68959202	         -1.97568899	          0.10673535	         -0.05000000	          0.02059540	          0.00000000	          0.44770371	          0.00000000	          0.00000000	         -0.17263209	          0.00000000	
          1.14000000	       -272.26698269	        798.86185296	        -36.37374688	          0.80755183	          0.00000000	          0.15736969	         31.21558982	         74.96146870	         -1.65823892	          0.10955198	         -0.05000000	          0.02039238	          0.00000000	          0.37839762	          0.00000000	          0.00000000	         -0.08600968	          0.00000000	
